<svg xmlns="http://www.w3.org/2000/svg" width="396" height="396" version="1" viewBox="0 0 396 396"><path fill="#fff" d="M189.7 15c-9.8 2.5-18.2 9.5-22.6 19-3.7 8-3.6 19 .3 27.5l2.8 6-51.3 51.2L67.4 170l-6-2.7c-8.3-4-19.4-4-27.5 0-7.3 3.2-13.5 9.3-17 16.6-3.6 8-3.6 19 .2 27 3.3 7.3 9.5 13.5 16.7 17 8 3.7 19 3.6 27.5-.3l6-2.8 51.2 51.3 51.4 51.3-2.7 6c-4 8.3-4 19.4-.2 27.5 3.5 7.3 9.7 13.5 17 17 8 3.6 19 3.6 27-.2 11.5-5.3 19-16 19.7-28.7 1-14.4-9-29-23-33.2l-3.7-1v-84.5l3.8-1c9.2-3 17.6-11 21-20.6l1.7-4.7h84.2l1 3.8c4.3 14 19 24 33.6 23 17.3-1.3 30.2-14.3 31.4-31.8 1-12.8-6.4-25.3-18.4-31.2-6-3-7.7-3.3-14.8-3.3-6.5 0-9 .5-13.6 2.7-9.3 4.2-15.5 11.7-19.3 23-.6 1.7-3.3 1.8-42.2 1.6l-41.6-.3-2.4-5.6c-4-10-11.6-17.4-20.8-20.2l-3.8-1V80.5l4.8-1.8c10-3.6 17.7-12 20.8-22.7 4.4-15-3.6-32-18-38.6-6-2.8-16-3.8-22-2.4zm-4.5 63.2l5.8 2.3v84.2l-3.8 1c-9.2 3-16.7 10.2-20.8 20.2l-2.3 5.5-41.5.3c-39 .2-41.6 0-42.2-1.5-.3-1-1.6-4.3-3-7.3l-2.4-5.4 51.2-51.3c28.2-28.2 51.8-51 52.3-51 .6.4 3.6 1.6 6.7 3zm-19.4 129.6c2.8 9.2 11 17.6 20.5 21l4.7 1.7v84l-5.8 2.3-6.7 2.8c-.5.2-24-22.7-52.3-51L75 217.5l2.4-5.5c1.4-3 2.6-6 2.6-6.8 0-1 9-1.2 42.3-1.2h42.4l1 3.8z"/></svg>
